# xmcd CD database file
#
# Track frame offsets:
#	150
#	18240
#	31505
#	52834
#	73767
#	88950
#	107565
#	122004
#	138482
#	158338
#	175157
#	202792
#	216481
#
# Disc length: 3094 seconds
#
# Revision: 0
# Processed by: cddbd v1.5.2PL0 Copyright (c) Steve Scherf et al.
# Submitted via: CDex 1.70beta2
#
DISCID=a40c140d
DTITLE=Big Jim Slade - Big Jim Slade
DYEAR=2000
DGENRE=Blues
TTITLE0=Still Walkin
TTITLE1=Power of changes
TTITLE2=Day in Day Out
TTITLE3=Free my mind
TTITLE4=Set in the stone
TTITLE5=Face tu Face
TTITLE6=Always
TTITLE7=8 Days
TTITLE8=Enemies
TTITLE9=Promises
TTITLE10=Come to this
TTITLE11=Blurred Truth
TTITLE12=Spread Your Wings
EXTD=YEAR: 2000
EXTT0=
EXTT1=
EXTT2=
EXTT3=
EXTT4=
EXTT5=
EXTT6=
EXTT7=
EXTT8=
EXTT9=
EXTT10=
EXTT11=
EXTT12=
PLAYORDER=
